<svg width="243" height="166" viewBox="0 0 243 166" fill="none" xmlns="http://www.w3.org/2000/svg">
<path d="M227.028 165.505L211.028 165.505C206.628 165.194 204.528 160.376 204.028 158.005V142.505H39.0283V143.505L38.5283 159.505C38.5283 162.705 33.8617 164.839 31.5283 165.505H16.0283C10.8283 164.705 8.86165 159.505 8.52832 157.005V141.005L1.02856 133.005V130.005V83.5052C0.628564 79.1052 4.52856 71.3386 6.52856 68.0052C10.5286 58.8052 23.1952 51.5052 29.0286 49.0052L16.5284 46.0052C9.7284 44.0052 8.36173 40.5052 8.5284 39.0052C8.9284 31.4052 22.3617 30.1719 29.0284 30.5052C32.6284 30.5052 34.5284 33.5052 35.0284 35.0052V39.0052L44.5284 21.0053C51.3284 4.60528 70.6951 0.838569 79.5284 1.00522H164.028C184.028 1.00522 194.695 13.6719 197.528 20.0052L208.028 39.0052L208.528 34.5053C208.528 30.5053 213.528 30.1719 216.028 30.5053L226.528 32.0053C232.928 33.2053 234.528 37.5053 234.528 39.5053C235.728 43.1053 221.695 48.0053 214.528 50.0053C233.328 56.8053 240.362 73.1719 241.528 80.5053V132.505L234.528 140.505V158.005C234.528 162.405 229.528 164.839 227.028 165.505Z" fill="white" stroke="white"/>
<path d="M228.452 98L187.452 99C188.119 98.9837 188.552 98.961 184.952 99C181.352 99.039 181.785 95.3496 182.452 93.5C184.052 90.7 189.785 87 192.452 85.5L222.952 77C225.752 76.2 229.119 76 230.452 76C233.252 76.8 234.619 79.6667 234.952 81V92C234.152 94.8 230.285 97.1667 228.452 98Z" fill="#0D0D0D"/>
<path d="M15.5285 97.5052L56.5285 98.5052C55.8618 98.489 55.4285 98.4662 59.0285 98.5052C62.6285 98.5443 62.1951 94.8548 61.5285 93.0052C59.9285 90.2052 54.1951 86.5052 51.5285 85.0052L21.0285 76.5052C18.2285 75.7052 14.8618 75.5052 13.5285 75.5052C10.7285 76.3052 9.3618 79.1719 9.02847 80.5052V91.5052C9.82846 94.3052 13.6951 96.6719 15.5285 97.5052Z" fill="#0D0D0D"/>
<path d="M204.028 48.0053C148.828 40.4053 70.5283 44.8387 39.5283 48.0054L51.0283 24.5052C56.6283 10.5052 74.3617 7.67187 82.5283 8.00524H163.028C181.028 7.60524 189.362 19.1719 191.528 24.5052L204.028 48.0053Z" fill="#0D0D0D"/>
</svg>
